<svg xmlns="http://www.w3.org/2000/svg" viewBox="0 0 1200 900" role="img" aria-labelledby="t d"><title id="t">Credit cohort memory</title><desc id="d">A procession of translucent strata records credit memory through time.</desc><defs>
<linearGradient id="bg" x2="1" y2="1"><stop stop-color="#f0efe9"/><stop offset=".52" stop-color="#ccd9da"/><stop offset="1" stop-color="#718b99"/></linearGradient><linearGradient id="slab" x2="1" y2="1"><stop stop-color="#f8ffff" stop-opacity=".8"/><stop offset=".35" stop-color="#79a9b8" stop-opacity=".5"/><stop offset="1" stop-color="#0b2a4b" stop-opacity=".8"/></linearGradient><pattern id="matrix" width="26" height="26" patternUnits="userSpaceOnUse"><circle cx="3" cy="3" r="2" fill="#173b5a" opacity=".32"/></pattern><filter id="shadow" x="-50%" y="-50%" width="220%" height="220%"><feGaussianBlur in="SourceAlpha" stdDeviation="13"/><feOffset dy="20"/><feComponentTransfer><feFuncA type="linear" slope=".3"/></feComponentTransfer><feMerge><feMergeNode/><feMergeNode in="SourceGraphic"/></feMerge></filter><filter id="glow"><feGaussianBlur stdDeviation="9" result="x"/><feMerge><feMergeNode in="x"/><feMergeNode in="SourceGraphic"/></feMerge></filter></defs>
<rect width="1200" height="900" fill="url(#bg)"/><rect x="0" y="0" width="490" height="900" fill="url(#matrix)" opacity=".34"/><text x="63" y="92" fill="#143553" font-family="Arial,sans-serif" font-size="14" letter-spacing="5">COHORT MEMORY / 04</text><text x="59" y="821" fill="#102f50" font-family="Georgia,serif" font-size="116" letter-spacing="-6">TIME</text>
<g filter="url(#shadow)" transform="translate(420 155) rotate(-8 330 300)">
 <path d="M0 90L378 0l175 106-380 94z" fill="url(#slab)" opacity=".25"/><path d="M39 170l378-90 175 106-380 94z" fill="url(#slab)" opacity=".4"/><path d="M80 252l378-90 175 106-380 94z" fill="url(#slab)" opacity=".57"/><path d="M120 335l378-90 175 106-380 94z" fill="url(#slab)" opacity=".72"/><path d="M160 420l378-90 175 106-380 94z" fill="url(#slab)" opacity=".9"/>
 <path d="M160 420l380-90 175 106-382 95z" fill="url(#matrix)" opacity=".7"/>
 <path d="M458 162l175 106" stroke="#f06a43" stroke-width="7" filter="url(#glow)"/>
</g><circle cx="877" cy="423" r="11" fill="#f0643d" filter="url(#glow)"/><g fill="#24455e" font-family="Arial,sans-serif" font-size="12" letter-spacing="3"><text x="987" y="89">MOB 12</text><text x="920" y="831">PAST / PRESENT</text></g>
</svg>
